<?xml version="1.0" encoding="utf-8"?>
<!-- Generator: Adobe Illustrator 24.3.0, SVG Export Plug-In . SVG Version: 6.00 Build 0)  -->
<svg version="1.1" id="Layer_1" xmlns="http://www.w3.org/2000/svg" xmlns:xlink="http://www.w3.org/1999/xlink" x="0px" y="0px"
	 viewBox="0 0 679.43 284.13" style="enable-background:new 0 0 679.43 284.13;" xml:space="preserve">
<style type="text/css">
	.st0{fill:#13224B;}
	.st1{fill:#FFFFFF;}
	.st2{fill:#F19F00;}
</style>
<rect y="0" class="st0" width="679.43" height="284.13"/>
<polygon class="st1" points="109.62,84.49 109.62,205.61 198.37,205.61 198.37,183.11 135.98,183.11 135.98,155.08 189.2,155.08 
	189.2,133.28 135.98,133.28 135.98,106.98 196.24,106.98 196.24,84.49 "/>
<polygon class="st1" points="406.58,183.08 406.58,205.58 317.83,205.58 317.83,84.46 404.45,84.46 404.45,106.95 344.19,106.95 
	344.19,133.25 397.41,133.25 397.41,155.05 344.19,155.05 344.19,183.08 "/>
<polygon class="st2" points="421.94,84.93 462.22,144.45 419.81,206.05 450.27,206.05 490.08,144.46 452.07,84.93 "/>
<polygon class="st2" points="539.92,83.15 500.1,144.73 538.12,204.26 568.25,204.26 527.97,144.74 570.38,83.15 "/>
<g>
	<path class="st1" d="M280.75,128.23c0-13.32-8.19-21.11-24.4-21.11h-21.62v42.04h21.62C272.56,149.17,280.75,141.38,280.75,128.23
		 M307.6,128.23c0,26.99-19.16,43.78-49.78,43.78h-23.09v33.39H208.2V84.28h49.62C288.45,84.28,307.6,101.07,307.6,128.23"/>
</g>
</svg>
