<?xml version="1.0" encoding="UTF-8" standalone="no"?>
<!-- Generator: Adobe Illustrator 24.3.0, SVG Export Plug-In . SVG Version: 6.00 Build 0)  -->

<svg
   xmlns:dc="http://purl.org/dc/elements/1.1/"
   xmlns:cc="http://creativecommons.org/ns#"
   xmlns:rdf="http://www.w3.org/1999/02/22-rdf-syntax-ns#"
   xmlns:svg="http://www.w3.org/2000/svg"
   xmlns="http://www.w3.org/2000/svg"
   xmlns:sodipodi="http://sodipodi.sourceforge.net/DTD/sodipodi-0.dtd"
   xmlns:inkscape="http://www.inkscape.org/namespaces/inkscape"
   version="1.1"
   id="Layer_1"
   x="0px"
   y="0px"
   viewBox="0 0 600.00001 250"
   xml:space="preserve"
   sodipodi:docname="logo.svg"
   inkscape:version="0.92.3 (2405546, 2018-03-11)"
   width="600"
   height="250"
   inkscape:export-filename="D:\Carlos Rafael\Faculdade\ESPM\Labs\Combustivel\public\imagens\logo.png"
   inkscape:export-xdpi="95.999992"
   inkscape:export-ydpi="95.999992"><metadata
   id="metadata859"><rdf:RDF><cc:Work
       rdf:about=""><dc:format>image/svg+xml</dc:format><dc:type
         rdf:resource="http://purl.org/dc/dcmitype/StillImage" /><dc:title></dc:title></cc:Work></rdf:RDF></metadata><defs
   id="defs857" /><sodipodi:namedview
   pagecolor="#ffffff"
   bordercolor="#666666"
   borderopacity="1"
   objecttolerance="10"
   gridtolerance="10"
   guidetolerance="10"
   inkscape:pageopacity="0"
   inkscape:pageshadow="2"
   inkscape:window-width="1366"
   inkscape:window-height="705"
   id="namedview855"
   showgrid="false"
   inkscape:zoom="1.2436896"
   inkscape:cx="305.14045"
   inkscape:cy="132.41629"
   inkscape:window-x="-8"
   inkscape:window-y="-8"
   inkscape:window-maximized="1"
   inkscape:current-layer="Layer_1" />
<style
   type="text/css"
   id="style838">
	.st0{fill:#13224B;}
	.st1{fill:#FFFFFF;}
	.st2{fill:#F19F00;}
</style>
<rect
   y="-1.7763568e-014"
   class="st0"
   width="600"
   height="250"
   id="rect840"
   x="0"
   style="fill:#13224b;stroke-width:0.88148457" />
<polygon
   class="st1"
   points="196.24,84.49 109.62,84.49 109.62,205.61 198.37,205.61 198.37,183.11 135.98,183.11 135.98,155.08 189.2,155.08 189.2,133.28 135.98,133.28 135.98,106.98 196.24,106.98 "
   id="polygon842"
   style="fill:#ffffff"
   transform="translate(-39.999997,-20.05)" />
<polygon
   class="st1"
   points="317.83,84.46 404.45,84.46 404.45,106.95 344.19,106.95 344.19,133.25 397.41,133.25 397.41,155.05 344.19,155.05 344.19,183.08 406.58,183.08 406.58,205.58 317.83,205.58 "
   id="polygon844"
   style="fill:#ffffff"
   transform="translate(-38.399977,-20.02)" />
<polygon
   class="st2"
   points="462.22,144.45 419.81,206.05 450.27,206.05 490.08,144.46 452.07,84.93 421.94,84.93 "
   id="polygon846"
   style="fill:#f19f00"
   transform="translate(-40.79996,-20.49)" />

<g
   id="g852"
   transform="translate(-38.999988,-19.84)">
	<path
   class="st1"
   d="m 280.75,128.23 c 0,-13.32 -8.19,-21.11 -24.4,-21.11 h -21.62 v 42.04 h 21.62 c 16.21,0.01 24.4,-7.78 24.4,-20.93 m 26.85,0 c 0,26.99 -19.16,43.78 -49.78,43.78 H 234.73 V 205.4 H 208.2 V 84.28 h 49.62 c 30.63,0 49.78,16.79 49.78,43.95"
   id="path850"
   inkscape:connector-curvature="0"
   style="fill:#ffffff" />
</g>
<polygon
   class="st2"
   points="450.27,206.05 490.08,144.46 452.07,84.93 421.94,84.93 462.22,144.45 419.81,206.05 "
   id="polygon846-3"
   style="fill:#f19f00"
   transform="matrix(-1,0,0,1,950.19005,-20.49)" /></svg>